<?xml version="1.0" encoding="utf-8"?>
<!-- Uploaded to: SVG Repo, www.svgrepo.com, Generator: SVG Repo Mixer Tools -->
<svg width="800px" height="800px" viewBox="0 0 1024 1024" class="icon"  version="1.1" xmlns="http://www.w3.org/2000/svg"><path d="M500.3 365.2V289h55.5v76.2M644 379.9l39.8-53.5 52.7 39.1-39.8 53.4M412.2 379.9l-39.8-53.5-52.7 39.1 39.8 53.4M481.9 233.5h92.5V289h-92.5z" fill="#F59558" /><path d="M787.1 622.1c0 143-116 259-259 259s-259-116-259-259 115.9-259 259-259c143 0 259 116 259 259z" fill="#E74C3C" /><path d="M380.1 548.1h296v148h-296z" fill="#EFE2C2" /><path d="M718.5 420.5l32.8-44c2.9-3.9 4.2-8.9 3.5-13.7-0.7-4.9-3.3-9.2-7.3-12.2l-52.7-39.1c-8.2-6.1-19.8-4.4-25.9 3.8L632 364.8c-18.4-7.5-37.7-13-57.8-16.4v-41c10.2 0 18.5-8.3 18.5-18.5v-55.5c0-10.2-8.3-18.5-18.5-18.5h-92.5c-10.2 0-18.5 8.3-18.5 18.5V289c0 10.2 8.3 18.5 18.5 18.5v41c-20.1 3.4-39.4 8.9-57.7 16.4l-36.9-49.5c-6.1-8.2-17.7-9.9-25.9-3.8l-52.7 39.1c-3.9 2.9-6.6 7.3-7.3 12.2-0.7 4.9 0.5 9.8 3.5 13.7l32.8 44c-53.5 50.6-87.1 122.2-87.1 201.6 0 153 124.5 277.5 277.5 277.5s277.5-124.5 277.5-277.5c0.2-79.4-33.3-151-86.9-201.7z m-30.9-68.2l22.9 17-20.5 27.6c-7.7-5.6-15.8-10.7-24.1-15.5l21.7-29.1zM500.4 252h55.5v18.5h-55.5V252z m18.4 55.5h18.5v37.3c-3.1-0.1-6.1-0.2-9.2-0.2-3.1 0-6.2 0.1-9.3 0.2v-37.3z m-173.2 61.8l22.9-17 21.7 29.1c-8.3 4.8-16.3 10-24.1 15.5l-20.5-27.6z m182.5 493.3c-132.6 0-240.5-107.9-240.5-240.5 0-122.6 92.2-224 210.9-238.6 0.6 0.1 1.2 0.2 1.8 0.2 2 0 4-0.4 5.8-1 7.2-0.7 14.5-1 21.9-1 7.4 0 14.7 0.4 21.9 1 1.8 0.6 3.8 1 5.8 1 0.6 0 1.2-0.1 1.8-0.2 118.7 14.6 210.9 116 210.9 238.6 0.2 132.6-107.7 240.5-240.3 240.5z" fill="#211F1E" /><path d="M676.1 529.6h-296c-10.2 0-18.5 8.3-18.5 18.5v148c0 10.2 8.3 18.5 18.5 18.5h296c10.2 0 18.5-8.3 18.5-18.5v-148c0-10.2-8.3-18.5-18.5-18.5z m-18.5 148h-259v-111h259v111z" fill="#211F1E" /></svg>